{
    "asset" : {
        "generator" : "Khronos glTF Blender I/O v3.2.43",
        "version" : "2.0"
    },
    "scene" : 0,
    "scenes" : [
        {
            "name" : "Scene",
            "nodes" : [
                0
            ]
        }
    ],
    "nodes" : [
        {
            "mesh" : 0,
            "name" : "main_body",
            "translation" : [
                0.1667279154062271,
                0,
                0
            ]
        }
    ],
    "materials" : [
        {
            "doubleSided" : true,
            "name" : "white",
            "pbrMetallicRoughness" : {
                "metallicFactor" : 0,
                "roughnessFactor" : 0.5
            }
        },
        {
            "doubleSided" : true,
            "name" : "dark_gray",
            "pbrMetallicRoughness" : {
                "baseColorFactor" : [
                    0.046961650252342224,
                    0.046961650252342224,
                    0.046961650252342224,
                    1
                ],
                "metallicFactor" : 0,
                "roughnessFactor" : 0.5
            }
        },
        {
            "doubleSided" : true,
            "name" : "light_gray",
            "pbrMetallicRoughness" : {
                "baseColorFactor" : [
                    0.17886202037334442,
                    0.17886202037334442,
                    0.17886202037334442,
                    1
                ],
                "metallicFactor" : 0,
                "roughnessFactor" : 0.5
            }
        },
        {
            "doubleSided" : true,
            "name" : "lens",
            "pbrMetallicRoughness" : {
                "baseColorFactor" : [
                    0,
                    0,
                    0,
                    1
                ],
                "metallicFactor" : 0,
                "roughnessFactor" : 0.5
            }
        }
    ],
    "meshes" : [
        {
            "name" : "Cube.001",
            "primitives" : [
                {
                    "attributes" : {
                        "POSITION" : 0,
                        "NORMAL" : 1,
                        "TEXCOORD_0" : 2
                    },
                    "indices" : 3,
                    "material" : 0
                },
                {
                    "attributes" : {
                        "POSITION" : 4,
                        "NORMAL" : 5,
                        "TEXCOORD_0" : 6
                    },
                    "indices" : 7,
                    "material" : 1
                },
                {
                    "attributes" : {
                        "POSITION" : 8,
                        "NORMAL" : 9,
                        "TEXCOORD_0" : 10
                    },
                    "indices" : 11,
                    "material" : 2
                },
                {
                    "attributes" : {
                        "POSITION" : 12,
                        "NORMAL" : 13,
                        "TEXCOORD_0" : 14
                    },
                    "indices" : 15,
                    "material" : 3
                }
            ]
        }
    ],
    "accessors" : [
        {
            "bufferView" : 0,
            "componentType" : 5126,
            "count" : 679,
            "max" : [
                3.5832197666168213,
                0.8296536803245544,
                3.6949830055236816
            ],
            "min" : [
                -3.9166758060455322,
                -1.8444969654083252,
                -3.6949830055236816
            ],
            "type" : "VEC3"
        },
        {
            "bufferView" : 1,
            "componentType" : 5126,
            "count" : 679,
            "type" : "VEC3"
        },
        {
            "bufferView" : 2,
            "componentType" : 5126,
            "count" : 679,
            "type" : "VEC2"
        },
        {
            "bufferView" : 3,
            "componentType" : 5123,
            "count" : 1974,
            "type" : "SCALAR"
        },
        {
            "bufferView" : 4,
            "componentType" : 5126,
            "count" : 508,
            "max" : [
                3.5832197666168213,
                0.5330988168716431,
                3.6949830055236816
            ],
            "min" : [
                -3.9166758060455322,
                -1.4220569133758545,
                -3.6949830055236816
            ],
            "type" : "VEC3"
        },
        {
            "bufferView" : 5,
            "componentType" : 5126,
            "count" : 508,
            "type" : "VEC3"
        },
        {
            "bufferView" : 6,
            "componentType" : 5126,
            "count" : 508,
            "type" : "VEC2"
        },
        {
            "bufferView" : 7,
            "componentType" : 5123,
            "count" : 1344,
            "type" : "SCALAR"
        },
        {
            "bufferView" : 8,
            "componentType" : 5126,
            "count" : 340,
            "max" : [
                3.5832197666168213,
                0.6092491149902344,
                3.6949830055236816
            ],
            "min" : [
                -3.9166758060455322,
                -1.788170576095581,
                -3.6949830055236816
            ],
            "type" : "VEC3"
        },
        {
            "bufferView" : 9,
            "componentType" : 5126,
            "count" : 340,
            "type" : "VEC3"
        },
        {
            "bufferView" : 10,
            "componentType" : 5126,
            "count" : 340,
            "type" : "VEC2"
        },
        {
            "bufferView" : 11,
            "componentType" : 5123,
            "count" : 930,
            "type" : "SCALAR"
        },
        {
            "bufferView" : 12,
            "componentType" : 5126,
            "count" : 10,
            "max" : [
                2.176269292831421,
                -1.115370512008667,
                0.05843609943985939
            ],
            "min" : [
                2.1299493312835693,
                -1.2164114713668823,
                -0.05843616649508476
            ],
            "type" : "VEC3"
        },
        {
            "bufferView" : 13,
            "componentType" : 5126,
            "count" : 10,
            "type" : "VEC3"
        },
        {
            "bufferView" : 14,
            "componentType" : 5126,
            "count" : 10,
            "type" : "VEC2"
        },
        {
            "bufferView" : 15,
            "componentType" : 5123,
            "count" : 24,
            "type" : "SCALAR"
        }
    ],
    "bufferViews" : [
        {
            "buffer" : 0,
            "byteLength" : 8148,
            "byteOffset" : 0
        },
        {
            "buffer" : 0,
            "byteLength" : 8148,
            "byteOffset" : 8148
        },
        {
            "buffer" : 0,
            "byteLength" : 5432,
            "byteOffset" : 16296
        },
        {
            "buffer" : 0,
            "byteLength" : 3948,
            "byteOffset" : 21728
        },
        {
            "buffer" : 0,
            "byteLength" : 6096,
            "byteOffset" : 25676
        },
        {
            "buffer" : 0,
            "byteLength" : 6096,
            "byteOffset" : 31772
        },
        {
            "buffer" : 0,
            "byteLength" : 4064,
            "byteOffset" : 37868
        },
        {
            "buffer" : 0,
            "byteLength" : 2688,
            "byteOffset" : 41932
        },
        {
            "buffer" : 0,
            "byteLength" : 4080,
            "byteOffset" : 44620
        },
        {
            "buffer" : 0,
            "byteLength" : 4080,
            "byteOffset" : 48700
        },
        {
            "buffer" : 0,
            "byteLength" : 2720,
            "byteOffset" : 52780
        },
        {
            "buffer" : 0,
            "byteLength" : 1860,
            "byteOffset" : 55500
        },
        {
            "buffer" : 0,
            "byteLength" : 120,
            "byteOffset" : 57360
        },
        {
            "buffer" : 0,
            "byteLength" : 120,
            "byteOffset" : 57480
        },
        {
            "buffer" : 0,
            "byteLength" : 80,
            "byteOffset" : 57600
        },
        {
            "buffer" : 0,
            "byteLength" : 48,
            "byteOffset" : 57680
        }
    ],
    "buffers" : [
        {
            "byteLength" : 57728,
            "uri" : "data:application/octet-stream;base64,"
        }
    ]
}
